<svg width="499" height="519" xmlns="http://www.w3.org/2000/svg" xmlns:xlink="http://www.w3.org/1999/xlink" xml:space="preserve" overflow="hidden"><g transform="translate(-721 -101)"><g><g><g><g><path d="M406.532 371.209 406.532 652.965" stroke="#5A50A0" stroke-width="1.13846" stroke-linecap="butt" stroke-linejoin="miter" stroke-miterlimit="4" stroke-opacity="1" fill="none" fill-rule="nonzero" transform="matrix(1.00099 0 0 1 564.286 -159.812)"/><path d="M306.917 412.471 506.147 611.702" stroke="#5A50A0" stroke-width="1.13846" stroke-linecap="butt" stroke-linejoin="miter" stroke-miterlimit="4" stroke-opacity="1" fill="none" fill-rule="nonzero" transform="matrix(1.00099 0 0 1 564.286 -159.812)"/><path d="M265.654 512.087 547.41 512.087" stroke="#5A50A0" stroke-width="1.13846" stroke-linecap="butt" stroke-linejoin="miter" stroke-miterlimit="4" stroke-opacity="1" fill="none" fill-rule="nonzero" transform="matrix(1.00099 0 0 1 564.286 -159.812)"/><path d="M306.917 611.702 506.147 412.471" stroke="#5A50A0" stroke-width="1.13846" stroke-linecap="butt" stroke-linejoin="miter" stroke-miterlimit="4" stroke-opacity="1" fill="none" fill-rule="nonzero" transform="matrix(1.00099 0 0 1 564.286 -159.812)"/><path d="M431.137 116.69C431.137 144.042 408.964 166.213 381.613 166.213 354.263 166.213 332.09 144.042 332.09 116.69 332.09 89.3396 354.263 67.1674 381.613 67.1674 408.964 67.1674 431.137 89.3396 431.137 116.69Z" fill="#1D193D" fill-rule="nonzero" fill-opacity="1" transform="matrix(1.00099 0 0 1 722 102)"/><path d="M486.53 249.035C486.53 276.385 464.358 298.558 437.006 298.558 409.656 298.558 387.483 276.385 387.483 249.035 387.483 221.684 409.656 199.512 437.006 199.512 464.358 199.512 486.53 221.684 486.53 249.035Z" fill="#1D193D" fill-rule="nonzero" fill-opacity="1" transform="matrix(1.00099 0 0 1 722 102)"/><path d="M432.046 380.771C432.046 408.121 409.873 430.294 382.523 430.294 355.173 430.294 333 408.121 333 380.771 333 353.419 355.173 331.248 382.523 331.248 409.873 331.248 432.046 353.419 432.046 380.771Z" fill="#1D193D" fill-rule="nonzero" fill-opacity="1" transform="matrix(1.00099 0 0 1 722 102)"/><path d="M324.41 247.955C324.396 289.355 290.64 322.905 249.015 322.892 207.41 322.877 173.686 289.335 173.671 247.955 173.656 206.553 207.389 172.98 249.015 172.965 290.64 172.951 324.396 206.501 324.41 247.902 324.41 247.919 324.41 247.936 324.41 247.955Z" fill="#1D193D" fill-rule="nonzero" fill-opacity="1" transform="matrix(1.00099 0 0 1 722 102)"/><path d="M110.431 248.831C110.431 276.182 88.2586 298.354 60.9077 298.354 33.5568 298.354 11.3846 276.182 11.3846 248.831 11.3846 221.481 33.5568 199.308 60.9077 199.308 88.2586 199.308 110.431 221.481 110.431 248.831Z" fill="#1D193D" fill-rule="nonzero" fill-opacity="1" transform="matrix(1.00099 0 0 1 722 102)"/><path d="M82.9419 216.911C79.952 220.911 75.9845 227.451 69.9919 229.434 63.9995 231.417 60.126 232.215 55.3342 238.257 48.3371 247.079 52.2389 255.885 55.2987 258.927 55.8361 258.209 56.4241 257.556 57.042 257.042L64.4064 250.886C63.2365 245.991 65.4609 241.582 66.2564 237.546 66.3004 241.33 65.6354 245.394 66.541 249.178L74.119 243.558C73.4492 237.459 75.2496 235.011 75.3997 234.236 75.5814 233.299 74.9425 237.979 76.0756 240.925 78.6454 237.368 79.7597 233.509 81.768 229.861 80.7995 233.404 80.7077 237.046 78.8506 240.462L77.6767 242.135C79.5764 242.706 81.5047 241.845 83.4045 241.673 81.2783 242.607 79.1268 244.134 77.0006 244.234L68.391 251.1C70.7535 251.461 75.454 251.34 78.7795 251.1L76.8583 251.989C71.1175 254.174 69.0337 253.415 65.9718 253.305L58.9987 259.639C58.6091 260.14 58.2125 260.633 57.8247 261.132 57.9438 261.239 58.0562 261.335 58.216 261.453 60.68 263.272 61.9423 264.902 69.7074 265.723 77.4724 266.543 86.4193 255.05 88.3497 248.788 90.2802 242.525 88.6344 230.003 88.6344 230.003 87.9842 225.138 85.6107 220.082 82.942 216.911ZM57.8246 261.132C57.2779 260.642 57.0228 260.224 56.0458 259.603 55.8055 259.431 55.5582 259.186 55.2987 258.927 55.3044 258.933 55.293 258.957 55.2987 258.962 53.316 261.615 51.8989 265.183 51.243 266.505 50.408 268.187 50.0689 271.521 50.0689 271.521L46.1199 266.078 45.3372 267.288C43.658 264.593 41.9057 262.236 40.89 261.382L35.34 256.721C38.3766 257.891 42.5029 260.999 44.4477 263.694L46.1199 266.043 46.5112 265.438 46.5112 260.457C46.5112 257.116 42.9775 251.031 34.6641 251.136L25.3073 251.243C29.1332 257.19 30.6192 264.537 34.2727 268.248 37.9264 271.958 42.6456 271.166 44.9458 268L45.3372 267.323C47.2741 270.43 49.0777 273.97 49.4641 276.146 49.4641 276.146 49.223 276.496 49.3218 281.127 49.4205 285.758 50.057 286.992 53.1641 286.784 52.3173 280.705 52.3955 274.647 53.6622 268.817 54.2946 265.906 55.9982 263.491 57.8246 261.132Z" fill="#FFFFFF" fill-rule="nonzero" fill-opacity="1" transform="matrix(1.00099 0 0 1 722 102)"/><path d="M165.321 380.365C165.317 407.715 143.141 429.884 115.791 429.88 88.4454 429.876 66.2788 407.709 66.2747 380.365 66.2706 353.013 88.4394 330.838 115.791 330.833 143.141 330.83 165.317 352.998 165.321 380.35 165.321 380.354 165.321 380.359 165.321 380.365Z" fill="#1D193D" fill-rule="nonzero" fill-opacity="1" transform="matrix(1.00099 0 0 1 722 102)"/><path d="M298.455 437.248C298.455 464.598 276.282 486.771 248.931 486.771 221.58 486.771 199.408 464.598 199.408 437.248 199.408 409.896 221.58 387.725 248.931 387.725 276.282 387.725 298.455 409.896 298.455 437.248Z" fill="#1D193D" fill-rule="nonzero" fill-opacity="1" transform="matrix(1.00099 0 0 1 722 102)"/><path d="M248.931 399.447C228.048 399.447 211.113 416.382 211.113 437.266 211.113 458.149 228.048 475.048 248.931 475.048 269.814 475.048 286.749 458.149 286.749 437.266 286.749 416.382 269.814 399.447 248.931 399.447ZM248.291 405.78 248.291 437.871 270.526 459.893C264.928 465.137 257.386 468.36 249.109 468.36 231.818 468.36 217.801 454.343 217.801 437.052 217.801 420.038 231.382 406.218 248.291 405.78Z" fill="#FFFFFF" fill-rule="nonzero" fill-opacity="1" transform="matrix(1.00099 0 0 1 722 102)"/><path d="M299.356 60.9077C299.356 88.2586 277.185 110.431 249.833 110.431 222.483 110.431 200.31 88.2586 200.31 60.9077 200.31 33.5568 222.483 11.3846 249.833 11.3846 277.185 11.3846 299.356 33.5568 299.356 60.9077Z" fill="#1D193D" fill-rule="nonzero" fill-opacity="1" transform="matrix(1.00099 0 0 1 722 102)"/><path d="M249.833 29.6694C238.985 29.6694 230.195 38.4591 230.195 49.3079 230.195 53.6329 231.674 57.409 233.539 60.9415L249.833 95.0242 266.413 60.7992C268.062 57.5541 269.472 53.6329 269.472 49.3079 269.472 38.4591 260.683 29.6694 249.833 29.6694ZM249.833 38.6704C255.709 38.6704 260.471 43.4329 260.471 49.3079 260.471 55.1829 255.709 59.9454 249.833 59.9454 243.959 59.9454 239.195 55.1829 239.195 49.3079 239.195 43.4329 243.959 38.6704 249.833 38.6704Z" fill="#FFFFFF" fill-rule="nonzero" fill-opacity="1" transform="matrix(1.00099 0 0 1 722 102)"/><path d="M165.092 117.258C165.087 144.61 142.912 166.779 115.561 166.774 88.2161 166.77 66.0496 144.604 66.0455 117.258 66.0412 89.9078 88.2102 67.7322 115.561 67.7281 142.912 67.7239 165.087 89.8928 165.092 117.243 165.092 117.249 165.092 117.254 165.092 117.258Z" fill="#1D193D" fill-rule="nonzero" fill-opacity="1" transform="matrix(1.00099 0 0 1 722 102)"/><path d="M290.415 356.908C281.358 357.022 272.562 359.794 272.412 365.304 272.115 376.19 271.879 387.077 271.701 397.963L274.12 397.963C274.12 398.012 274.12 398.057 274.12 398.106 274.12 401.599 275.666 404.403 277.571 404.403 279.476 404.403 281.022 401.599 281.022 398.106 281.022 398.057 281.022 398.012 281.022 397.963L299.878 397.963C299.878 398.012 299.878 398.057 299.878 398.106 299.878 401.599 301.424 404.403 303.329 404.403 305.234 404.403 306.78 401.599 306.78 398.106 306.78 398.057 306.78 398.012 306.78 397.963L309.342 397.963C309.41 386.762 309.395 375.623 308.63 364.45 308.281 359.358 299.471 356.794 290.415 356.908ZM281.627 361.497 299.451 361.497 299.451 363.952 281.627 363.952 281.627 361.497ZM275.899 365.162 305.748 365.162 306.46 380.104 275.294 380.104 275.899 365.162ZM277.571 386.578C278.763 386.578 279.742 387.559 279.742 388.749 279.742 389.94 278.763 390.919 277.571 390.919 276.38 390.919 275.437 389.94 275.437 388.749 275.437 387.559 276.38 386.578 277.571 386.578ZM303.222 386.578C304.413 386.578 305.357 387.559 305.357 388.749 305.357 389.94 304.413 390.919 303.222 390.919 302.032 390.919 301.052 389.94 301.052 388.749 301.052 387.559 302.032 386.578 303.222 386.578Z" fill="#FFFFFF" fill-rule="nonzero" fill-opacity="1" transform="matrix(1.00099 0 0 1 565.112 -159.812)"/><path d="M248.968 370.64 248.968 374.02 242.35 374.02C239.868 380.4 238.099 385.516 235.235 386.188L235.235 397.963 238.081 397.963C238.228 401.089 239.47 403.549 240.999 403.549 242.526 403.549 243.769 401.089 243.915 397.963L262.131 397.963C262.278 401.089 263.52 403.549 265.048 403.549 266.576 403.549 267.819 401.089 267.965 397.963L270.634 397.963 270.634 386.188C267.831 384.519 265.759 380.703 263.34 374.02L257.185 374.02 257.185 370.64 248.968 370.64ZM243.951 376.901 261.632 376.901 263.803 384.301 241.923 384.301 243.951 376.901ZM240.927 387.184C242.118 387.184 243.097 388.128 243.097 389.319 243.097 390.509 242.118 391.488 240.927 391.488 239.736 391.488 238.757 390.509 238.757 389.319 238.757 388.128 239.736 387.184 240.927 387.184ZM264.835 387.184C266.025 387.184 266.969 388.128 266.969 389.319 266.969 390.509 266.025 391.488 264.835 391.488 263.644 391.488 262.665 390.509 262.665 389.319 262.665 388.128 263.644 387.184 264.835 387.184Z" fill="#FFFFFF" fill-rule="nonzero" fill-opacity="1" transform="matrix(1.00099 0 0 1 565.112 -159.812)"/><path d="M240.001 264.948 240.001 261.657C240.001 260.145 240.16 258.781 240.476 257.566 240.823 256.321 241.33 255.15 241.994 254.052 242.689 252.926 243.575 251.844 244.65 250.807 245.724 249.739 247.021 248.642 248.539 247.515 249.867 246.537 250.99 245.662 251.906 244.891 252.824 244.12 253.567 243.364 254.137 242.623 254.705 241.853 255.117 241.052 255.369 240.222 255.622 239.391 255.749 238.428 255.749 237.331 255.749 235.641 255.132 234.248 253.899 233.15 252.697 232.054 250.847 231.505 248.35 231.505 246.167 231.505 243.812 231.935 241.282 232.795 238.784 233.654 236.191 234.708 233.504 235.952L228.666 226.124C230.025 225.382 231.496 224.686 233.077 224.033 234.689 223.351 236.349 222.758 238.057 222.255 239.796 221.721 241.551 221.306 243.322 221.01 245.093 220.712 246.832 220.564 248.539 220.564 251.764 220.564 254.674 220.936 257.266 221.677 259.86 222.388 262.057 223.44 263.859 224.834 265.661 226.227 267.038 227.918 267.986 229.904 268.966 231.891 269.456 234.159 269.456 236.708 269.456 238.576 269.235 240.252 268.792 241.734 268.349 243.187 267.685 244.551 266.8 245.826 265.946 247.07 264.855 248.286 263.528 249.472 262.231 250.629 260.713 251.858 258.974 253.163 257.646 254.142 256.555 255.002 255.701 255.743 254.879 256.454 254.231 257.136 253.756 257.789 253.283 258.441 252.95 259.123 252.76 259.835 252.602 260.516 252.523 261.332 252.523 262.28L252.523 264.948 240.001 264.948" fill="#FFFFFF" fill-rule="nonzero" fill-opacity="1" transform="matrix(1.00099 0 0 1 722 102)"/><text fill="#1D193D" fill-opacity="1" font-family="Arial,Arial_MSFontService,sans-serif" font-style="normal" font-variant="normal" font-weight="400" font-stretch="normal" font-size="16" text-anchor="start" direction="ltr" writing-mode="lr-tb" unicode-bidi="normal" text-decoration="none" transform="matrix(1.13959 0 0 1.13846 803.687 288)">       </text><text fill="#1D193D" fill-opacity="1" font-family="Arial,Arial_MSFontService,sans-serif" font-style="normal" font-variant="normal" font-weight="400" font-stretch="normal" font-size="14" text-anchor="start" direction="ltr" writing-mode="lr-tb" unicode-bidi="normal" text-decoration="none" transform="matrix(1.13959 0 0 1.13846 803.687 288)">Transport</text><text fill="#1D193D" fill-opacity="1" font-family="Arial,Arial_MSFontService,sans-serif" font-style="normal" font-variant="normal" font-weight="400" font-stretch="normal" font-size="16" text-anchor="start" direction="ltr" writing-mode="lr-tb" unicode-bidi="normal" text-decoration="none" transform="matrix(1.13959 0 0 1.13846 870.922 288)">     </text><text fill="#1D193D" fill-opacity="1" font-family="Arial,Arial_MSFontService,sans-serif" font-style="normal" font-variant="normal" font-weight="400" font-stretch="normal" font-size="16" text-anchor="start" direction="ltr" writing-mode="lr-tb" unicode-bidi="normal" text-decoration="none" transform="matrix(1.13959 0 0 1.13846 972.217 232)">       </text><text fill="#1D193D" fill-opacity="1" font-family="Arial,Arial_MSFontService,sans-serif" font-style="normal" font-variant="normal" font-weight="400" font-stretch="normal" font-size="14" text-anchor="start" direction="ltr" writing-mode="lr-tb" unicode-bidi="normal" text-decoration="none" transform="matrix(1.13959 0 0 1.13846 912.389 232)">Geographical</text><text fill="#1D193D" fill-opacity="1" font-family="Arial,Arial_MSFontService,sans-serif" font-style="normal" font-variant="normal" font-weight="400" font-stretch="normal" font-size="16" text-anchor="start" direction="ltr" writing-mode="lr-tb" unicode-bidi="normal" text-decoration="none" transform="matrix(1.13959 0 0 1.13846 1006.97 232)">     </text><text fill="#1D193D" fill-opacity="1" font-family="Arial,Arial_MSFontService,sans-serif" font-style="normal" font-variant="normal" font-weight="400" font-stretch="normal" font-size="16" text-anchor="start" direction="ltr" writing-mode="lr-tb" unicode-bidi="normal" text-decoration="none" transform="matrix(1.13959 0 0 1.13846 921.878 448)">       </text><text fill="#1D193D" fill-opacity="1" font-family="Arial,Arial_MSFontService,sans-serif" font-style="normal" font-variant="normal" font-weight="400" font-stretch="normal" font-size="14" text-anchor="start" direction="ltr" writing-mode="lr-tb" unicode-bidi="normal" text-decoration="none" transform="matrix(1.13959 0 0 1.13846 921.878 448)">Types of Data</text><text fill="#1D193D" fill-opacity="1" font-family="Arial,Arial_MSFontService,sans-serif" font-style="normal" font-variant="normal" font-weight="400" font-stretch="normal" font-size="16" text-anchor="start" direction="ltr" writing-mode="lr-tb" unicode-bidi="normal" text-decoration="none" transform="matrix(1.13959 0 0 1.13846 1019.88 448)">     </text><text fill="#1D193D" fill-opacity="1" font-family="Arial,Arial_MSFontService,sans-serif" font-style="normal" font-variant="normal" font-weight="400" font-stretch="normal" font-size="16" text-anchor="start" direction="ltr" writing-mode="lr-tb" unicode-bidi="normal" text-decoration="none" transform="matrix(1.13959 0 0 1.13846 937.201 608)">       </text><text fill="#1D193D" fill-opacity="1" font-family="Arial,Arial_MSFontService,sans-serif" font-style="normal" font-variant="normal" font-weight="400" font-stretch="normal" font-size="14" text-anchor="start" direction="ltr" writing-mode="lr-tb" unicode-bidi="normal" text-decoration="none" transform="matrix(1.13959 0 0 1.13846 937.201 608)">Statistical</text><text fill="#1D193D" fill-opacity="1" font-family="Arial,Arial_MSFontService,sans-serif" font-style="normal" font-variant="normal" font-weight="400" font-stretch="normal" font-size="16" text-anchor="start" direction="ltr" writing-mode="lr-tb" unicode-bidi="normal" text-decoration="none" transform="matrix(1.13959 0 0 1.13846 1005.58 608)">     </text><text fill="#1D193D" fill-opacity="1" font-family="Arial,Arial_MSFontService,sans-serif" font-style="normal" font-variant="normal" font-weight="400" font-stretch="normal" font-size="16" text-anchor="start" direction="ltr" writing-mode="lr-tb" unicode-bidi="normal" text-decoration="none" transform="matrix(1.13959 0 0 1.13846 794.747 551)">       </text><text fill="#1D193D" fill-opacity="1" font-family="Arial,Arial_MSFontService,sans-serif" font-style="normal" font-variant="normal" font-weight="400" font-stretch="normal" font-size="14" text-anchor="start" direction="ltr" writing-mode="lr-tb" unicode-bidi="normal" text-decoration="none" transform="matrix(1.13959 0 0 1.13846 785.817 551)">Meteorological</text><text fill="#1D193D" fill-opacity="1" font-family="Arial,Arial_MSFontService,sans-serif" font-style="normal" font-variant="normal" font-weight="400" font-stretch="normal" font-size="16" text-anchor="start" direction="ltr" writing-mode="lr-tb" unicode-bidi="normal" text-decoration="none" transform="matrix(1.13959 0 0 1.13846 889.519 551)">     </text><text fill="#1D193D" fill-opacity="1" font-family="Arial,Arial_MSFontService,sans-serif" font-style="normal" font-variant="normal" font-weight="400" font-stretch="normal" font-size="16" text-anchor="start" direction="ltr" writing-mode="lr-tb" unicode-bidi="normal" text-decoration="none" transform="matrix(1.13959 0 0 1.13846 1127.35 421)">       </text><text fill="#1D193D" fill-opacity="1" font-family="Arial,Arial_MSFontService,sans-serif" font-style="normal" font-variant="normal" font-weight="400" font-stretch="normal" font-size="14" text-anchor="start" direction="ltr" writing-mode="lr-tb" unicode-bidi="normal" text-decoration="none" transform="matrix(1.13959 0 0 1.13846 1127.35 421)">Scientific</text><text fill="#1D193D" fill-opacity="1" font-family="Arial,Arial_MSFontService,sans-serif" font-style="normal" font-variant="normal" font-weight="400" font-stretch="normal" font-size="16" text-anchor="start" direction="ltr" writing-mode="lr-tb" unicode-bidi="normal" text-decoration="none" transform="matrix(1.13959 0 0 1.13846 1191.17 421)">     </text><text fill="#1D193D" fill-opacity="1" font-family="Arial,Arial_MSFontService,sans-serif" font-style="normal" font-variant="normal" font-weight="400" font-stretch="normal" font-size="16" text-anchor="start" direction="ltr" writing-mode="lr-tb" unicode-bidi="normal" text-decoration="none" transform="matrix(1.13959 0 0 1.13846 1072.83 551)">       </text><text fill="#1D193D" fill-opacity="1" font-family="Arial,Arial_MSFontService,sans-serif" font-style="normal" font-variant="normal" font-weight="400" font-stretch="normal" font-size="14" text-anchor="start" direction="ltr" writing-mode="lr-tb" unicode-bidi="normal" text-decoration="none" transform="matrix(1.13959 0 0 1.13846 1072.83 551)">Financial</text><text fill="#1D193D" fill-opacity="1" font-family="Arial,Arial_MSFontService,sans-serif" font-style="normal" font-variant="normal" font-weight="400" font-stretch="normal" font-size="16" text-anchor="start" direction="ltr" writing-mode="lr-tb" unicode-bidi="normal" text-decoration="none" transform="matrix(1.13959 0 0 1.13846 1136.65 551)">     </text><text fill="#1D193D" fill-opacity="1" font-family="Arial,Arial_MSFontService,sans-serif" font-style="normal" font-variant="normal" font-weight="400" font-stretch="normal" font-size="16" text-anchor="start" direction="ltr" writing-mode="lr-tb" unicode-bidi="normal" text-decoration="none" transform="matrix(1.13959 0 0 1.13846 757.112 421)">       </text><text fill="#1D193D" fill-opacity="1" font-family="Arial,Arial_MSFontService,sans-serif" font-style="normal" font-variant="normal" font-weight="400" font-stretch="normal" font-size="14" text-anchor="start" direction="ltr" writing-mode="lr-tb" unicode-bidi="normal" text-decoration="none" transform="matrix(1.13959 0 0 1.13846 757.112 421)">Natural</text><text fill="#1D193D" fill-opacity="1" font-family="Arial,Arial_MSFontService,sans-serif" font-style="normal" font-variant="normal" font-weight="400" font-stretch="normal" font-size="16" text-anchor="start" direction="ltr" writing-mode="lr-tb" unicode-bidi="normal" text-decoration="none" transform="matrix(1.13959 0 0 1.13846 808.394 421)">     </text><text fill="#1D193D" fill-opacity="1" font-family="Arial,Arial_MSFontService,sans-serif" font-style="normal" font-variant="normal" font-weight="400" font-stretch="normal" font-size="16" text-anchor="start" direction="ltr" writing-mode="lr-tb" unicode-bidi="normal" text-decoration="none" transform="matrix(1.13959 0 0 1.13846 1104.12 288)">       </text><text fill="#1D193D" fill-opacity="1" font-family="Arial,Arial_MSFontService,sans-serif" font-style="normal" font-variant="normal" font-weight="400" font-stretch="normal" font-size="14" text-anchor="start" direction="ltr" writing-mode="lr-tb" unicode-bidi="normal" text-decoration="none" transform="matrix(1.13959 0 0 1.13846 1064.24 288)">Cultural</text><text fill="#1D193D" fill-opacity="1" font-family="Arial,Arial_MSFontService,sans-serif" font-style="normal" font-variant="normal" font-weight="400" font-stretch="normal" font-size="16" text-anchor="start" direction="ltr" writing-mode="lr-tb" unicode-bidi="normal" text-decoration="none" transform="matrix(1.13959 0 0 1.13846 1118.94 288)">     </text><path d="M117.38 345.415C108.118 345.415 100.606 352.796 100.339 361.993 95.3599 362.598 91.4152 366.418 90.5554 371.315 89.8986 371.128 89.2087 371.03 88.4919 371.03 84.3264 371.03 80.9496 374.407 80.9496 378.573 80.9496 382.738 84.3264 386.115 88.4919 386.115 88.5388 386.115 88.5875 386.115 88.6342 386.115L137.872 386.115C137.968 386.117 138.061 386.115 138.157 386.115 145.86 386.115 152.103 379.87 152.103 372.169 152.103 364.466 145.86 358.223 138.157 358.223 136.725 358.223 135.331 358.426 134.03 358.827 132.354 351.156 125.554 345.415 117.38 345.415Z" fill="#FFFFFF" fill-rule="nonzero" fill-opacity="1" transform="matrix(1.00099 0 0 1 722 102)"/><path d="M110.834 387.808 125.803 387.707 119.09 394.766 126.247 394.766 100.596 417.961 111.318 399.006 100.217 399.006Z" fill="#FFFFFF" fill-rule="nonzero" fill-opacity="1" transform="matrix(1.00099 0 0 1 722 102)"/><path d="M254.28 279.654C254.28 283.741 250.967 287.054 246.88 287.054 242.794 287.054 239.48 283.741 239.48 279.654 239.48 275.567 242.794 272.254 246.88 272.254 250.967 272.254 254.28 275.567 254.28 279.654Z" fill="#FFFFFF" fill-rule="nonzero" fill-opacity="1" transform="matrix(1.00099 0 0 1 722 102)"/><text fill="#FFFFFF" fill-opacity="1" font-family="Arial,Arial_MSFontService,sans-serif" font-style="normal" font-variant="normal" font-weight="700" font-stretch="normal" font-size="63" text-anchor="start" direction="ltr" writing-mode="lr-tb" unicode-bidi="normal" text-decoration="none" transform="matrix(1.10308 0 0 1.17614 1080.37 505)">       </text><text fill="#FFFFFF" fill-opacity="1" font-family="Arial,Arial_MSFontService,sans-serif" font-style="normal" font-variant="normal" font-weight="700" font-stretch="normal" font-size="63" text-anchor="start" direction="ltr" writing-mode="lr-tb" unicode-bidi="normal" text-decoration="none" transform="matrix(1.10308 0 0 1.17614 1080.37 505)">$</text><text fill="#FFFFFF" fill-opacity="1" font-family="Arial,Arial_MSFontService,sans-serif" font-style="normal" font-variant="normal" font-weight="700" font-stretch="normal" font-size="63" text-anchor="start" direction="ltr" writing-mode="lr-tb" unicode-bidi="normal" text-decoration="none" transform="matrix(1.10308 0 0 1.17614 1118.98 505)">     </text><path d="M421.848 210.934 421.848 215.773C424.588 222.532 429.235 226.776 434.051 230.75 431.131 233.212 428.383 235.652 426.615 238.115 421.571 245.143 417.942 255.749 428.252 264.869 429.871 266.3 431.663 267.61 433.482 268.889 426.777 274.763 421.706 280.378 421.706 285.254L421.706 288.812 428.145 288.812 428.145 286.463C428.145 286.306 428.174 286.156 428.18 286.001L449.064 286.001C449.071 286.156 449.099 286.306 449.099 286.463L449.099 288.812 455.575 288.812 455.575 285.254C455.575 280.384 450.493 274.757 443.799 268.889 445.618 267.61 447.41 266.3 449.029 264.869 459.337 255.749 455.674 245.143 450.629 238.115 448.866 235.658 446.141 233.206 443.229 230.75 448.042 226.778 452.658 222.527 455.397 215.773L455.397 210.934 448.815 210.934 448.744 213.459 428.536 213.459 428.429 210.934 421.848 210.934ZM428.786 215.061 448.495 215.061C448.16 216.379 447.462 217.711 446.538 219.009L430.741 219.009C429.818 217.711 429.12 216.379 428.786 215.061ZM431.987 220.611 445.293 220.611C443.476 222.727 441.122 224.825 438.64 226.908 436.159 224.826 433.804 222.726 431.987 220.611ZM438.64 234.521C440.747 236.303 442.766 238.18 444.582 240.32 444.698 240.457 444.79 240.608 444.902 240.747L432.343 240.747C432.455 240.608 432.547 240.457 432.663 240.32 434.485 238.172 436.526 236.307 438.64 234.521ZM431.205 242.348 446.075 242.348C446.866 243.589 447.5 244.904 447.925 246.262L429.318 246.262C429.745 244.901 430.414 243.59 431.205 242.348ZM428.928 247.862 448.317 247.862C448.583 249.233 448.672 250.605 448.495 251.989L428.786 251.989C428.608 250.605 428.66 249.233 428.928 247.862ZM429.141 253.626 448.139 253.626C447.768 255.006 447.13 256.355 446.218 257.646L431.026 257.646C430.118 256.358 429.512 255.004 429.141 253.626ZM432.343 259.247 444.902 259.247C444.381 259.799 443.838 260.332 443.194 260.848 441.66 262.078 440.135 263.326 438.64 264.548 437.138 263.32 435.628 262.084 434.086 260.848 433.44 260.33 432.865 259.801 432.343 259.247ZM438.64 272.482C441.613 274.558 444.32 276.664 446.253 279.063L430.991 279.063C432.925 276.664 435.666 274.558 438.64 272.482ZM429.852 280.665 447.392 280.665C448.102 281.826 448.624 283.063 448.886 284.4L428.359 284.4C428.621 283.063 429.143 281.826 429.852 280.665Z" fill="#FFFFFF" fill-rule="nonzero" fill-opacity="1" transform="matrix(1.00099 0 0 1 722 102)"/><path d="M375.953 82.43C374.618 96.6836 357.192 104.269 353.615 106.309L381.255 137.823C393.45 135.231 399.735 126.834 403.988 116.3ZM382.784 84.7069 382.499 89.5454 404.629 116.086 404.593 116.37C400.652 127.084 393.509 135.257 381.664 138.321L381.664 140.313C391.556 137.032 398.914 134.303 412.099 118.007ZM353.615 106.907 353.611 116.726 381.006 148.852 380.934 138.5ZM409.752 121.955C398.389 135.368 389.956 137.951 381.664 140.882L381.664 143.124C393.211 139.241 401.547 135.697 413.949 126.403ZM409.368 130.404C404.37 133.62 397.774 138.348 381.664 143.623L381.664 145.294C390.003 142.245 396.444 139.855 411.352 132.451ZM411.282 133.34C399.214 138.903 389.956 142.789 381.664 145.721L381.664 148.852C390.827 146.498 399.54 143.295 411.317 138.748Z" fill="#FFFFFF" fill-rule="nonzero" fill-opacity="1" transform="matrix(1.00099 0 0 1 722 102)"/></g></g></g></g></g></svg>